<svg width="127" height="32" viewBox="0 0 127 32" fill="none" xmlns="http://www.w3.org/2000/svg">
<g id="logoipsum-297 1" clip-path="url(#clip0_1428_50)">
<path id="Vector" fill-rule="evenodd" clip-rule="evenodd" d="M20.3978 9.34824C19.0853 8.4692 17.5421 8 15.9634 8V0C19.1207 0 22.2071 0.938384 24.8323 2.69649C27.4574 4.45458 29.5035 6.95345 30.7118 9.87704C31.9199 12.8006 32.2361 16.0178 31.6201 19.1214C31.0042 22.2251 29.4838 25.0761 27.2513 27.3137C25.0188 29.5514 22.1743 31.0752 19.0778 31.6926C15.9812 32.3099 12.7714 31.993 9.85447 30.7821C6.93755 29.571 4.44441 27.5203 2.69033 24.8891C0.93624 22.2579 0 19.1645 0 16H7.98172C7.98172 17.5822 8.44985 19.129 9.32688 20.4446C10.2039 21.7602 11.4505 22.7855 12.909 23.391C14.3674 23.9966 15.9723 24.155 17.5206 23.8462C19.0689 23.5376 20.4911 22.7757 21.6074 21.6569C22.7236 20.538 23.4838 19.1126 23.7918 17.5607C24.0998 16.0089 23.9417 14.4003 23.3376 12.9386C22.7335 11.4767 21.7104 10.2273 20.3978 9.34824Z" fill="#00915A"/>
<path id="Vector_2" fill-rule="evenodd" clip-rule="evenodd" d="M7.98172 4.22794e-06C7.98172 1.05058 7.77527 2.09087 7.37415 3.06148C6.97303 4.03207 6.3851 4.91399 5.64393 5.65686C4.90276 6.39973 4.02286 6.989 3.05447 7.39104C2.08608 7.79308 1.04817 8 3.48889e-07 8L0 16C2.09635 16 4.17217 15.5862 6.10895 14.7821C8.04573 13.978 9.80554 12.7994 11.2878 11.3137C12.7702 9.828 13.9461 8.06416 14.7483 6.12294C15.5505 4.18172 15.9634 2.10115 15.9634 0L7.98172 4.22794e-06Z" fill="#00915A"/>
<path id="Vector_3" d="M100.266 11.562H96.3928V23.8919H100.266V11.562Z" fill="#00915A"/>
<path id="Vector_4" d="M96.8239 9.25329C97.2285 9.65921 97.7346 9.86217 98.342 9.86217C98.9494 9.86217 99.4475 9.65921 99.8354 9.25329C100.224 8.83049 100.418 8.32305 100.418 7.73109C100.418 7.12222 100.224 6.6148 99.8354 6.20889C99.4475 5.80296 98.9494 5.60001 98.342 5.60001C97.7346 5.60001 97.2285 5.80296 96.8239 6.20889C96.4352 6.6148 96.2412 7.12222 96.2412 7.73109C96.2412 8.32305 96.4352 8.83049 96.8239 9.25329Z" fill="#00915A"/>
<path id="Vector_5" d="M40.8315 23.8918V5.98053H44.8055V20.3908H52.7282V23.8918H40.8315Z" fill="#00915A"/>
<path id="Vector_6" fill-rule="evenodd" clip-rule="evenodd" d="M59.8848 24.1709C58.6192 24.1709 57.4717 23.8918 56.4423 23.3337C55.4299 22.7586 54.6283 21.9806 54.0377 20.9996C53.4471 20.0186 53.1518 18.9193 53.1518 17.7015C53.1518 16.4837 53.4471 15.3929 54.0377 14.4288C54.6283 13.4647 55.4299 12.7036 56.4423 12.1455C57.4548 11.5704 58.6023 11.2829 59.8848 11.2829C61.1673 11.2829 62.3147 11.562 63.3272 12.1201C64.3397 12.6782 65.1413 13.4478 65.7319 14.4288C66.3225 15.3929 66.6178 16.4837 66.6178 17.7015C66.6178 18.9193 66.3225 20.0186 65.7319 20.9996C65.1413 21.9806 64.3397 22.7586 63.3272 23.3337C62.3147 23.8918 61.1673 24.1709 59.8848 24.1709ZM59.8848 20.6445C60.4417 20.6445 60.931 20.5261 61.3529 20.2893C61.7748 20.0356 62.0954 19.6889 62.3147 19.2491C62.551 18.7925 62.6691 18.2765 62.6691 17.7015C62.6691 17.1265 62.551 16.6275 62.3147 16.2047C62.0785 15.7649 61.7495 15.4267 61.3275 15.1899C60.9226 14.9361 60.4417 14.8093 59.8848 14.8093C59.3448 14.8093 58.8639 14.9361 58.442 15.1899C58.0202 15.4267 57.6911 15.7649 57.4548 16.2047C57.2186 16.6445 57.1005 17.1518 57.1005 17.7269C57.1005 18.285 57.2186 18.7925 57.4548 19.2491C57.6911 19.6889 58.0202 20.0356 58.442 20.2893C58.8639 20.5261 59.3448 20.6445 59.8848 20.6445Z" fill="#00915A"/>
<path id="Vector_7" fill-rule="evenodd" clip-rule="evenodd" d="M69.685 28.7121C70.7143 29.1857 71.904 29.4225 73.254 29.4225C74.5702 29.4225 75.743 29.1603 76.7724 28.636C77.8018 28.1117 78.6117 27.3845 79.2023 26.4542C79.7929 25.524 80.0886 24.4246 80.0886 23.1561V11.562H76.2914V12.3904C76.009 12.1521 75.6883 11.9521 75.3296 11.7903C74.6714 11.4689 73.9205 11.3082 73.0768 11.3082C71.9462 11.3082 70.9421 11.5789 70.0647 12.1201C69.1871 12.6444 68.4953 13.3717 67.989 14.3019C67.4828 15.2153 67.2297 16.2469 67.2297 17.3971C67.2297 18.5303 67.4828 19.562 67.989 20.4922C68.4953 21.4225 69.1871 22.1582 70.0647 22.6994C70.9421 23.2406 71.9462 23.5113 73.0768 23.5113C73.9037 23.5113 74.6546 23.3506 75.3296 23.0293C75.6565 22.8736 75.9518 22.6901 76.2155 22.4789V23.2576C76.2155 24.1201 75.9371 24.7882 75.3802 25.2618C74.8402 25.7354 74.0893 25.9721 73.1274 25.9721C72.3512 25.9721 71.6847 25.8369 71.1278 25.5662C70.5878 25.2957 70.0984 24.8981 69.6596 24.3738L67.2803 26.7586C67.8709 27.6043 68.6725 28.2555 69.685 28.7121ZM75.203 19.7057C74.8148 19.9425 74.3509 20.0609 73.8108 20.0609C73.2709 20.0609 72.7983 19.9425 72.3934 19.7057C72.0052 19.4689 71.7015 19.1476 71.4822 18.7417C71.2627 18.3189 71.1531 17.8706 71.1531 17.3971C71.1531 16.8897 71.2627 16.433 71.4822 16.0271C71.7015 15.6212 72.0137 15.2998 72.4187 15.063C72.8236 14.8262 73.2877 14.7078 73.8108 14.7078C74.3509 14.7078 74.8148 14.8262 75.203 15.063C75.608 15.2998 75.9117 15.6212 76.1143 16.0271C76.3336 16.433 76.4433 16.8897 76.4433 17.3971C76.4433 17.9045 76.3336 18.3611 76.1143 18.767C75.9117 19.1561 75.608 19.4689 75.203 19.7057Z" fill="#00915A"/>
<path id="Vector_8" fill-rule="evenodd" clip-rule="evenodd" d="M88.2388 24.1709C86.9729 24.1709 85.8251 23.8918 84.7962 23.3337C83.7834 22.7586 82.982 21.9806 82.3913 20.9996C81.8007 20.0186 81.5054 18.9193 81.5054 17.7015C81.5054 16.4837 81.8007 15.3929 82.3913 14.4288C82.982 13.4647 83.7834 12.7036 84.7962 12.1455C85.8083 11.5704 86.9561 11.2829 88.2388 11.2829C89.5206 11.2829 90.6684 11.562 91.6805 12.1201C92.6934 12.6782 93.4947 13.4478 94.0854 14.4288C94.676 15.3929 94.9713 16.4837 94.9713 17.7015C94.9713 18.9193 94.676 20.0186 94.0854 20.9996C93.4947 21.9806 92.6934 22.7586 91.6805 23.3337C90.6684 23.8918 89.5206 24.1709 88.2388 24.1709ZM88.2388 20.6445C88.7951 20.6445 89.2844 20.5261 89.7066 20.2893C90.128 20.0356 90.4489 19.6889 90.6684 19.2491C90.9046 18.7925 91.0228 18.2765 91.0228 17.7015C91.0228 17.1265 90.9046 16.6275 90.6684 16.2047C90.4321 15.7649 90.1033 15.4267 89.6811 15.1899C89.2764 14.9361 88.7951 14.8093 88.2388 14.8093C87.6984 14.8093 87.2171 14.9361 86.7957 15.1899C86.3734 15.4267 86.0446 15.7649 85.8083 16.2047C85.5721 16.6445 85.4539 17.1518 85.4539 17.7269C85.4539 18.285 85.5721 18.7925 85.8083 19.2491C86.0446 19.6889 86.3734 20.0356 86.7957 20.2893C87.2171 20.5261 87.6984 20.6445 88.2388 20.6445Z" fill="#00915A"/>
<path id="Vector_9" fill-rule="evenodd" clip-rule="evenodd" d="M109.574 24.1455C108.748 24.1455 107.988 23.9849 107.296 23.6635C106.932 23.4944 106.603 23.2925 106.309 23.0577V29.0927H102.487V11.562H106.36V12.4129C106.641 12.1826 106.953 11.9835 107.296 11.8157C107.988 11.4773 108.748 11.3082 109.574 11.3082C110.738 11.3082 111.768 11.5873 112.662 12.1455C113.573 12.7036 114.282 13.4647 114.788 14.4288C115.312 15.3929 115.573 16.4922 115.573 17.7269C115.573 18.9616 115.312 20.0609 114.788 21.025C114.282 21.9891 113.573 22.7501 112.662 23.3083C111.768 23.8665 110.738 24.1455 109.574 24.1455ZM108.866 20.6445C109.422 20.6445 109.904 20.5176 110.308 20.2639C110.73 20.0102 111.059 19.6634 111.296 19.2237C111.532 18.784 111.65 18.285 111.65 17.7269C111.65 17.1518 111.532 16.6445 111.296 16.2047C111.059 15.7649 110.73 15.4267 110.308 15.1899C109.904 14.9361 109.431 14.8093 108.891 14.8093C108.351 14.8093 107.87 14.9361 107.448 15.1899C107.043 15.4267 106.723 15.7649 106.487 16.2047C106.25 16.6445 106.132 17.1518 106.132 17.7269C106.132 18.285 106.241 18.784 106.461 19.2237C106.697 19.6634 107.026 20.0102 107.448 20.2639C107.87 20.5176 108.342 20.6445 108.866 20.6445Z" fill="#00915A"/>
<path id="Vector_10" d="M119.363 23.9172C120.072 24.1033 120.789 24.1962 121.515 24.1962C123.05 24.1962 124.265 23.8411 125.16 23.1307C126.07 22.4204 126.526 21.4648 126.526 20.2639C126.526 19.4859 126.383 18.8601 126.096 18.3865C125.809 17.8961 125.438 17.507 124.983 17.2195C124.527 16.932 124.046 16.7036 123.539 16.5345C123.033 16.3653 122.552 16.2216 122.097 16.1032C121.641 15.9848 121.27 15.8495 120.983 15.6973C120.696 15.545 120.553 15.3421 120.553 15.0884C120.553 14.8516 120.663 14.674 120.882 14.5556C121.101 14.4203 121.43 14.3527 121.869 14.3527C122.325 14.3527 122.788 14.4457 123.261 14.6317C123.75 14.8177 124.189 15.1392 124.577 15.5958L126.779 13.3633C126.223 12.6529 125.497 12.1201 124.603 11.7649C123.725 11.3929 122.764 11.2068 121.717 11.2068C120.722 11.2068 119.853 11.3759 119.11 11.7141C118.367 12.0525 117.793 12.5176 117.389 13.1095C116.984 13.6845 116.781 14.3696 116.781 15.1645C116.781 15.9087 116.925 16.5261 117.212 17.0165C117.498 17.4901 117.87 17.8622 118.325 18.1328C118.781 18.4034 119.262 18.6149 119.768 18.767C120.274 18.9193 120.755 19.063 121.211 19.1984C121.666 19.3168 122.038 19.4605 122.325 19.6297C122.629 19.7819 122.78 20.0102 122.78 20.3146C122.78 20.5514 122.654 20.7374 122.4 20.8728C122.164 21.0081 121.819 21.0757 121.363 21.0757C120.704 21.0757 120.097 20.9573 119.541 20.7205C118.984 20.4669 118.502 20.1201 118.098 19.6804L115.895 21.9129C116.318 22.3696 116.824 22.7756 117.414 23.1307C118.022 23.4689 118.671 23.7311 119.363 23.9172Z" fill="#00915A"/>
</g>
<defs>
<clipPath id="clip0_1428_50">
<rect width="127" height="32" fill="white"/>
</clipPath>
</defs>
</svg>
